<svg width="140" height="20" viewBox="0 0 140 20" fill="none" xmlns="http://www.w3.org/2000/svg">
<ellipse cx="1.56345" cy="1.56345" rx="1.56345" ry="1.56345" fill="white"/>
<ellipse cx="4.69028" cy="1.56345" rx="1.56345" ry="1.56345" fill="white"/>
<ellipse cx="7.81724" cy="1.56345" rx="1.56345" ry="1.56345" fill="white"/>
<ellipse cx="10.9442" cy="1.56345" rx="1.56345" ry="1.56345" fill="white"/>
<ellipse cx="1.56345" cy="5.54319" rx="1.56345" ry="1.56345" fill="white"/>
<ellipse cx="14.071" cy="5.54319" rx="1.56345" ry="1.56345" fill="white"/>
<ellipse cx="1.56345" cy="9.5228" rx="1.56345" ry="1.56345" fill="white"/>
<ellipse cx="4.69028" cy="9.5228" rx="1.56345" ry="1.56345" fill="white"/>
<ellipse cx="7.81724" cy="9.5228" rx="1.56345" ry="1.56345" fill="white"/>
<ellipse cx="10.9442" cy="9.5228" rx="1.56345" ry="1.56345" fill="white"/>
<ellipse cx="1.56345" cy="13.5025" rx="1.56345" ry="1.56345" fill="white"/>
<ellipse cx="1.56345" cy="17.4822" rx="1.56345" ry="1.56345" fill="white"/>
<ellipse cx="19.3299" cy="1.56345" rx="1.56345" ry="1.56345" fill="white"/>
<ellipse cx="31.8375" cy="1.56345" rx="1.56345" ry="1.56345" fill="white"/>
<ellipse cx="19.3299" cy="5.54319" rx="1.56345" ry="1.56345" fill="white"/>
<ellipse cx="31.8375" cy="5.54319" rx="1.56345" ry="1.56345" fill="white"/>
<ellipse cx="19.3299" cy="9.5228" rx="1.56345" ry="1.56345" fill="white"/>
<ellipse cx="31.8375" cy="9.5228" rx="1.56345" ry="1.56345" fill="white"/>
<ellipse cx="19.3299" cy="13.5025" rx="1.56345" ry="1.56345" fill="white"/>
<ellipse cx="22.4569" cy="17.4822" rx="1.56345" ry="1.56345" fill="white"/>
<ellipse cx="25.5838" cy="17.4822" rx="1.56345" ry="1.56345" fill="white"/>
<ellipse cx="28.6396" cy="17.4822" rx="1.56345" ry="1.56345" fill="white"/>
<ellipse cx="31.8375" cy="13.5025" rx="1.56345" ry="1.56345" fill="white"/>
<ellipse cx="37.0964" cy="1.56345" rx="1.56345" ry="1.56345" fill="white"/>
<ellipse cx="49.6041" cy="1.56345" rx="1.56345" ry="1.56345" fill="white"/>
<ellipse cx="37.0964" cy="5.54319" rx="1.56345" ry="1.56345" fill="white"/>
<ellipse cx="46.4061" cy="5.54319" rx="1.56345" ry="1.56345" fill="white"/>
<ellipse cx="49.6041" cy="5.54319" rx="1.56345" ry="1.56345" fill="white"/>
<ellipse cx="37.0964" cy="9.5228" rx="1.56345" ry="1.56345" fill="white"/>
<ellipse cx="43.3503" cy="9.5228" rx="1.56345" ry="1.56345" fill="white"/>
<ellipse cx="49.6041" cy="9.5228" rx="1.56345" ry="1.56345" fill="white"/>
<ellipse cx="37.0964" cy="13.5025" rx="1.56345" ry="1.56345" fill="white"/>
<ellipse cx="40.2234" cy="13.5025" rx="1.56345" ry="1.56345" fill="white"/>
<ellipse cx="49.6041" cy="13.5025" rx="1.56345" ry="1.56345" fill="white"/>
<ellipse cx="37.0964" cy="17.4822" rx="1.56345" ry="1.56345" fill="white"/>
<ellipse cx="49.6041" cy="17.4822" rx="1.56345" ry="1.56345" fill="white"/>
<ellipse cx="108.162" cy="1.56345" rx="1.56345" ry="1.56345" fill="white"/>
<ellipse cx="111.289" cy="1.56345" rx="1.56345" ry="1.56345" fill="white"/>
<ellipse cx="114.416" cy="1.56345" rx="1.56345" ry="1.56345" fill="white"/>
<ellipse cx="117.543" cy="1.56345" rx="1.56345" ry="1.56345" fill="white"/>
<ellipse cx="108.162" cy="5.54319" rx="1.56345" ry="1.56345" fill="white"/>
<ellipse cx="120.67" cy="5.54319" rx="1.56345" ry="1.56345" fill="white"/>
<ellipse cx="108.162" cy="9.5228" rx="1.56345" ry="1.56345" fill="white"/>
<ellipse cx="120.67" cy="9.5228" rx="1.56345" ry="1.56345" fill="white"/>
<ellipse cx="108.162" cy="13.5025" rx="1.56345" ry="1.56345" fill="white"/>
<ellipse cx="120.67" cy="13.5025" rx="1.56345" ry="1.56345" fill="white"/>
<ellipse cx="108.162" cy="17.4822" rx="1.56345" ry="1.56345" fill="white"/>
<ellipse cx="111.289" cy="17.4822" rx="1.56345" ry="1.56345" fill="white"/>
<ellipse cx="114.416" cy="17.4822" rx="1.56345" ry="1.56345" fill="white"/>
<ellipse cx="117.543" cy="17.4822" rx="1.56345" ry="1.56345" fill="white"/>
<ellipse cx="138.437" cy="17.4822" rx="1.56345" ry="1.56345" transform="rotate(180 138.437 17.4822)" fill="white"/>
<ellipse cx="135.31" cy="17.4822" rx="1.56345" ry="1.56345" transform="rotate(180 135.31 17.4822)" fill="white"/>
<ellipse cx="132.183" cy="17.4822" rx="1.56345" ry="1.56345" transform="rotate(180 132.183 17.4822)" fill="white"/>
<ellipse cx="129.056" cy="17.4822" rx="1.56345" ry="1.56345" transform="rotate(180 129.056 17.4822)" fill="white"/>
<ellipse cx="125.929" cy="17.4822" rx="1.56345" ry="1.56345" transform="rotate(180 125.929 17.4822)" fill="white"/>
<ellipse cx="138.437" cy="13.5025" rx="1.56345" ry="1.56345" transform="rotate(180 138.437 13.5025)" fill="white"/>
<ellipse cx="138.437" cy="9.52285" rx="1.56345" ry="1.56345" transform="rotate(180 138.437 9.52285)" fill="white"/>
<ellipse cx="135.096" cy="9.52285" rx="1.56345" ry="1.56345" transform="rotate(180 135.096 9.52285)" fill="white"/>
<ellipse cx="131.97" cy="9.52285" rx="1.56345" ry="1.56345" transform="rotate(180 131.97 9.52285)" fill="white"/>
<ellipse cx="128.843" cy="9.52285" rx="1.56345" ry="1.56345" transform="rotate(180 128.843 9.52285)" fill="white"/>
<ellipse cx="138.437" cy="5.54312" rx="1.56345" ry="1.56345" transform="rotate(180 138.437 5.54312)" fill="white"/>
<ellipse cx="138.437" cy="1.5635" rx="1.56345" ry="1.56345" transform="rotate(180 138.437 1.5635)" fill="white"/>
<ellipse cx="135.31" cy="1.5635" rx="1.56345" ry="1.56345" transform="rotate(180 135.31 1.5635)" fill="white"/>
<ellipse cx="132.183" cy="1.5635" rx="1.56345" ry="1.56345" transform="rotate(180 132.183 1.5635)" fill="white"/>
<ellipse cx="129.056" cy="1.5635" rx="1.56345" ry="1.56345" transform="rotate(180 129.056 1.5635)" fill="white"/>
<ellipse cx="125.929" cy="1.5635" rx="1.56345" ry="1.56345" transform="rotate(180 125.929 1.5635)" fill="white"/>
<ellipse cx="54.863" cy="1.56345" rx="1.56345" ry="1.56345" fill="white"/>
<ellipse cx="64.2436" cy="1.56345" rx="1.56345" ry="1.56345" fill="white"/>
<ellipse cx="67.3706" cy="1.56345" rx="1.56345" ry="1.56345" fill="white"/>
<ellipse cx="54.863" cy="5.54319" rx="1.56345" ry="1.56345" fill="white"/>
<ellipse cx="61.1167" cy="5.93406" rx="1.56345" ry="1.56345" fill="white"/>
<ellipse cx="54.863" cy="9.5228" rx="1.56345" ry="1.56345" fill="white"/>
<ellipse cx="57.9898" cy="9.5228" rx="1.56345" ry="1.56345" fill="white"/>
<ellipse cx="54.863" cy="13.5025" rx="1.56345" ry="1.56345" fill="white"/>
<ellipse cx="61.1167" cy="13.5025" rx="1.56345" ry="1.56345" fill="white"/>
<ellipse cx="54.863" cy="17.4822" rx="1.56345" ry="1.56345" fill="white"/>
<ellipse cx="64.2436" cy="17.4822" rx="1.56345" ry="1.56345" fill="white"/>
<ellipse cx="67.3706" cy="17.4822" rx="1.56345" ry="1.56345" fill="white"/>
<ellipse cx="75.7563" cy="1.56345" rx="1.56345" ry="1.56345" fill="white"/>
<ellipse cx="78.8833" cy="1.56345" rx="1.56345" ry="1.56345" fill="white"/>
<ellipse cx="81.9392" cy="1.56345" rx="1.56345" ry="1.56345" fill="white"/>
<ellipse cx="72.6294" cy="5.93406" rx="1.56345" ry="1.56345" fill="white"/>
<ellipse cx="72.6294" cy="9.5228" rx="1.56345" ry="1.56345" fill="white"/>
<ellipse cx="72.6294" cy="13.5025" rx="1.56345" ry="1.56345" fill="white"/>
<ellipse cx="85.1371" cy="17.4822" rx="1.56345" ry="1.56345" fill="white"/>
<ellipse cx="85.1371" cy="1.56345" rx="1.56345" ry="1.56345" fill="white"/>
<ellipse cx="75.7563" cy="17.4822" rx="1.56345" ry="1.56345" fill="white"/>
<ellipse cx="78.8833" cy="17.4822" rx="1.56345" ry="1.56345" fill="white"/>
<ellipse cx="81.9392" cy="17.4822" rx="1.56345" ry="1.56345" fill="white"/>
<ellipse cx="93.5228" cy="1.56345" rx="1.56345" ry="1.56345" fill="white"/>
<ellipse cx="96.6498" cy="1.56345" rx="1.56345" ry="1.56345" fill="white"/>
<ellipse cx="99.7055" cy="1.56345" rx="1.56345" ry="1.56345" fill="white"/>
<ellipse cx="90.3959" cy="5.93406" rx="1.56345" ry="1.56345" fill="white"/>
<ellipse cx="102.904" cy="5.93406" rx="1.56345" ry="1.56345" fill="white"/>
<ellipse cx="90.3959" cy="9.91367" rx="1.56345" ry="1.56345" fill="white"/>
<ellipse cx="102.904" cy="9.91367" rx="1.56345" ry="1.56345" fill="white"/>
<ellipse cx="90.3959" cy="13.8934" rx="1.56345" ry="1.56345" fill="white"/>
<ellipse cx="102.904" cy="13.8934" rx="1.56345" ry="1.56345" fill="white"/>
<ellipse cx="93.5228" cy="17.4822" rx="1.56345" ry="1.56345" fill="white"/>
<ellipse cx="96.6498" cy="17.4822" rx="1.56345" ry="1.56345" fill="white"/>
<ellipse cx="99.7055" cy="17.4822" rx="1.56345" ry="1.56345" fill="white"/>
</svg>
