<svg width="30" height="30" viewBox="0 0 30 30" fill="none" xmlns="http://www.w3.org/2000/svg">
<g clip-path="url(#clip0_150_1459)">
<path d="M11.2837 11.2987H7.50748V6.89311C7.50748 5.93407 7.69729 5.03996 8.07692 4.21079C8.45654 3.38162 8.98101 2.65235 9.65034 2.02298C10.3197 1.39361 11.1089 0.899101 12.018 0.539461C12.9271 0.17982 13.9211 -1.95312e-08 15 0C15.959 0 16.8831 0.17982 17.7722 0.539461C18.6613 0.899101 19.4505 1.39361 20.1399 2.02298C20.8292 2.65235 21.3786 3.38162 21.7882 4.21079C22.1978 5.03996 22.4026 5.93407 22.4026 6.89311V11.2987H18.7762V7.73227C18.7762 6.47353 18.4266 5.4995 17.7273 4.81019C17.028 4.12088 16.0789 3.77622 14.8801 3.77622C13.8012 3.77622 12.9321 4.12088 12.2727 4.81019C11.6134 5.4995 11.2837 6.47353 11.2837 7.73227V11.2987ZM24.2008 13.0969C24.7403 13.0969 25.2048 13.2917 25.5944 13.6813C25.984 14.0709 26.1788 14.5355 26.1788 15.0749V24.3656C26.1788 24.9051 26.0839 25.4096 25.8941 25.8791C25.7043 26.3486 25.4445 26.7582 25.1149 27.1079C24.7852 27.4575 24.3956 27.7323 23.946 27.9321C23.4965 28.1319 23.002 28.2318 22.4625 28.2318H7.32766C6.7882 28.2318 6.29869 28.1319 5.85913 27.9321C5.41957 27.7323 5.04495 27.4675 4.73526 27.1379C4.42557 26.8082 4.18581 26.4236 4.01598 25.984C3.84615 25.5445 3.76123 25.0749 3.76123 24.5754V15.0749C3.76123 14.5355 3.95104 14.0709 4.33066 13.6813C4.71028 13.2917 5.16982 13.0969 5.70928 13.0969H7.50748H11.2837H18.7762H22.4026H24.2008Z" fill="white"/>
</g>
<defs>
<clipPath id="clip0_150_1459">
<rect width="30" height="30" fill="white"/>
</clipPath>
</defs>
</svg>
