<svg width="28" height="20" viewBox="0 0 28 20" fill="none" xmlns="http://www.w3.org/2000/svg">
<path d="M28 7.00897C27.9272 7.00298 27.8543 6.99999 27.7813 7H22.5312C21.0816 7 19.9062 8.17534 19.9062 9.625C19.9062 11.0747 21.0816 12.25 22.5312 12.25H27.7813C27.855 12.25 27.9278 12.2469 28 12.241V16.625C28 18.0747 26.8247 19.25 25.375 19.25H2.625C1.17534 19.25 0 18.0747 0 16.625V2.625C0 1.17534 1.17534 0 2.625 0H25.375C26.8247 0 28 1.17534 28 2.625V7.00897ZM22.5312 7.875H27.125C27.3571 7.875 27.5796 7.96719 27.7437 8.13128C27.9078 8.29538 28 8.51793 28 8.75V10.5C28 10.7321 27.9078 10.9546 27.7437 11.1187C27.5796 11.2828 27.3571 11.375 27.125 11.375H22.5312C22.0671 11.375 21.622 11.1906 21.2938 10.8624C20.9656 10.5342 20.7813 10.0891 20.7813 9.625C20.7813 9.16087 20.9656 8.71575 21.2938 8.38756C21.622 8.05938 22.0671 7.875 22.5312 7.875ZM22.75 10.7188C23.0401 10.7188 23.3183 10.6035 23.5234 10.3984C23.7285 10.1933 23.8438 9.91508 23.8438 9.625C23.8438 9.33492 23.7285 9.05672 23.5234 8.8516C23.3183 8.64648 23.0401 8.53125 22.75 8.53125C22.4599 8.53125 22.1817 8.64648 21.9766 8.8516C21.7715 9.05672 21.6562 9.33492 21.6562 9.625C21.6562 9.91508 21.7715 10.1933 21.9766 10.3984C22.1817 10.6035 22.4599 10.7188 22.75 10.7188Z" fill="black"/>
</svg>
