<svg width="20" height="20" viewBox="0 0 20 20" fill="none" xmlns="http://www.w3.org/2000/svg">
<path fill-rule="evenodd" clip-rule="evenodd" d="M0.441279 19.559C1.0279 20.1456 1.979 20.1456 2.56562 19.559L10 12.1246L17.4347 19.5593C18.0213 20.1459 18.9724 20.1459 19.559 19.5593C20.1456 18.9727 20.1456 18.0216 19.559 17.4349L12.1243 10.0003L19.5603 2.5643C20.1469 1.97768 20.1469 1.02658 19.5603 0.439964C18.9737 -0.146655 18.0226 -0.146656 17.436 0.439963L10 7.87594L2.5643 0.440245C1.97768 -0.146374 1.02658 -0.146374 0.439965 0.440245C-0.146654 1.02686 -0.146655 1.97796 0.439964 2.56458L7.87566 10.0003L0.441278 17.4347C-0.145341 18.0213 -0.145341 18.9724 0.441279 19.559Z" fill="#EFEEEF"/>
</svg>
